<?xml version="1.0" encoding="UTF-8" standalone="no"?>
<svg width="800" height="600" viewBox="0 0 800 600" fill="none" xmlns="http://www.w3.org/2000/svg">
  <!-- Background Gradient -->
  <rect width="800" height="600" fill="url(#gradient)" />
  
  <!-- Grid Pattern -->
  <pattern id="gridPattern" x="0" y="0" width="40" height="40" patternUnits="userSpaceOnUse">
    <line x1="0" y1="0" x2="40" y2="0" stroke="#5D4FFF" stroke-width="1" stroke-opacity="0.2" />
    <line x1="0" y1="0" x2="0" y2="40" stroke="#5D4FFF" stroke-width="1" stroke-opacity="0.2" />
  </pattern>
  <rect width="800" height="600" fill="url(#gridPattern)" />
  
  <!-- Mountains in the Background -->
  <polygon points="0,400 100,320 200,390 300,290 400,350 500,270 600,350 700,300 800,380 800,600 0,600" fill="#2B2740" />
  
  <!-- Stars -->
  <circle cx="100" cy="100" r="2" fill="white" />
  <circle cx="200" cy="150" r="2" fill="white" />
  <circle cx="300" cy="80" r="2" fill="white" />
  <circle cx="400" cy="120" r="1.5" fill="white" />
  <circle cx="500" cy="90" r="2" fill="white" />
  <circle cx="600" cy="130" r="1.5" fill="white" />
  <circle cx="700" cy="70" r="2" fill="white" />
  <circle cx="150" cy="60" r="1.5" fill="white" />
  <circle cx="250" cy="100" r="1.5" fill="white" />
  <circle cx="350" cy="50" r="2" fill="white" />
  <circle cx="450" cy="70" r="1.5" fill="white" />
  <circle cx="550" cy="110" r="2" fill="white" />
  <circle cx="650" cy="40" r="1.5" fill="white" />
  <circle cx="750" cy="120" r="2" fill="white" />
  
  <!-- Pixelated Sun -->
  <rect x="650" y="100" width="20" height="20" fill="#FFF176" />
  <rect x="630" y="100" width="20" height="20" fill="#FFF176" />
  <rect x="670" y="100" width="20" height="20" fill="#FFF176" />
  <rect x="650" y="80" width="20" height="20" fill="#FFF176" />
  <rect x="650" y="120" width="20" height="20" fill="#FFF176" />
  <rect x="630" y="80" width="20" height="20" fill="#FFF176" opacity="0.7" />
  <rect x="670" y="80" width="20" height="20" fill="#FFF176" opacity="0.7" />
  <rect x="630" y="120" width="20" height="20" fill="#FFF176" opacity="0.7" />
  <rect x="670" y="120" width="20" height="20" fill="#FFF176" opacity="0.7" />
  
  <!-- Definitions -->
  <defs>
    <linearGradient id="gradient" x1="0" y1="0" x2="0" y2="600" gradientUnits="userSpaceOnUse">
      <stop offset="0" stop-color="#120C43" />
      <stop offset="0.5" stop-color="#2B2273" />
      <stop offset="1" stop-color="#5651B5" />
    </linearGradient>
  </defs>
</svg>
